<mxfile host="app.diagrams.net" modified="2023-01-31T16:59:15.787Z" agent="5.0 (Windows)" etag="dO55OnSUkcIjEZmBb8y6" version="20.8.13" type="github">
  <diagram name="Page-1" id="wRnz-jHfgK5IGnU1zJ4V">
    <mxGraphModel dx="1434" dy="746" grid="1" gridSize="10" guides="1" tooltips="1" connect="1" arrows="1" fold="1" page="1" pageScale="1" pageWidth="850" pageHeight="1100" math="0" shadow="0">
      <root>
        <mxCell id="0" />
        <mxCell id="1" parent="0" />
        <mxCell id="bv2lth7Q65Tp9gxyl236-1" value="&lt;font style=&quot;font-size: 20px;&quot;&gt;Start&lt;/font&gt;" style="rounded=1;whiteSpace=wrap;html=1;arcSize=50;" vertex="1" parent="1">
          <mxGeometry x="330" y="110" width="120" height="60" as="geometry" />
        </mxCell>
        <mxCell id="bv2lth7Q65Tp9gxyl236-2" value="End" style="rounded=1;whiteSpace=wrap;html=1;arcSize=50;fontSize=20;" vertex="1" parent="1">
          <mxGeometry x="330" y="640" width="120" height="60" as="geometry" />
        </mxCell>
        <mxCell id="bv2lth7Q65Tp9gxyl236-3" value="&lt;font style=&quot;font-size: 17px;&quot;&gt;Read variables i and j&lt;/font&gt;" style="shape=parallelogram;perimeter=parallelogramPerimeter;whiteSpace=wrap;html=1;fixedSize=1;fontSize=20;" vertex="1" parent="1">
          <mxGeometry x="290" y="210" width="200" height="80" as="geometry" />
        </mxCell>
        <mxCell id="bv2lth7Q65Tp9gxyl236-4" value="" style="endArrow=classic;html=1;rounded=0;fontSize=17;" edge="1" parent="1">
          <mxGeometry width="50" height="50" relative="1" as="geometry">
            <mxPoint x="390" y="170" as="sourcePoint" />
            <mxPoint x="389.5" y="210" as="targetPoint" />
          </mxGeometry>
        </mxCell>
        <mxCell id="bv2lth7Q65Tp9gxyl236-7" value="" style="endArrow=classic;html=1;rounded=0;fontSize=17;" edge="1" parent="1">
          <mxGeometry width="50" height="50" relative="1" as="geometry">
            <mxPoint x="389.5" y="290" as="sourcePoint" />
            <mxPoint x="389.5" y="330" as="targetPoint" />
          </mxGeometry>
        </mxCell>
        <mxCell id="bv2lth7Q65Tp9gxyl236-8" value="i = i&lt;sup&gt;2&lt;/sup&gt; and j = i&lt;sup&gt;2&lt;/sup&gt;" style="rounded=0;whiteSpace=wrap;html=1;fontSize=17;" vertex="1" parent="1">
          <mxGeometry x="290" y="330" width="200" height="60" as="geometry" />
        </mxCell>
        <mxCell id="bv2lth7Q65Tp9gxyl236-9" value="" style="endArrow=classic;html=1;rounded=0;fontSize=17;" edge="1" parent="1" target="bv2lth7Q65Tp9gxyl236-10">
          <mxGeometry width="50" height="50" relative="1" as="geometry">
            <mxPoint x="389.5" y="390" as="sourcePoint" />
            <mxPoint x="390" y="440" as="targetPoint" />
          </mxGeometry>
        </mxCell>
        <mxCell id="bv2lth7Q65Tp9gxyl236-10" value="sum = i + j" style="rounded=0;whiteSpace=wrap;html=1;fontSize=17;" vertex="1" parent="1">
          <mxGeometry x="330" y="440" width="120" height="60" as="geometry" />
        </mxCell>
        <mxCell id="bv2lth7Q65Tp9gxyl236-11" value="print sum" style="rounded=0;whiteSpace=wrap;html=1;fontSize=17;" vertex="1" parent="1">
          <mxGeometry x="330" y="540" width="120" height="60" as="geometry" />
        </mxCell>
        <mxCell id="bv2lth7Q65Tp9gxyl236-12" value="" style="endArrow=classic;html=1;rounded=0;fontSize=17;" edge="1" parent="1">
          <mxGeometry width="50" height="50" relative="1" as="geometry">
            <mxPoint x="389.5" y="500" as="sourcePoint" />
            <mxPoint x="389.5" y="540" as="targetPoint" />
          </mxGeometry>
        </mxCell>
        <mxCell id="bv2lth7Q65Tp9gxyl236-13" value="" style="endArrow=classic;html=1;rounded=0;fontSize=17;exitX=0.5;exitY=1;exitDx=0;exitDy=0;" edge="1" parent="1" source="bv2lth7Q65Tp9gxyl236-11">
          <mxGeometry width="50" height="50" relative="1" as="geometry">
            <mxPoint x="389.5" y="610" as="sourcePoint" />
            <mxPoint x="390" y="640" as="targetPoint" />
          </mxGeometry>
        </mxCell>
      </root>
    </mxGraphModel>
  </diagram>
</mxfile>
